<svg id="Layer_3" height="512" viewBox="0 0 64 64" width="512" xmlns="http://www.w3.org/2000/svg" data-name="Layer 3"><path d="m62 1h-52a1 1 0 0 0 -1 1v29h-7a1 1 0 0 0 -1 1v14a1 1 0 0 0 1 1h1.8l-2.782 14.816a1 1 0 0 0 .982 1.184h11a1 1 0 0 0 1-1v-7h3a1 1 0 0 0 1-1v-1h44a1 1 0 0 0 1-1v-50a1 1 0 0 0 -1-1zm-32 2h12v15.826l-5.35-4.585a1 1 0 0 0 -1.3 0l-5.35 4.585zm-27 30h27.483l-5.142 12h-22.341zm9 14v10h-8.045l1.874-10zm-8.795 14 .375-2h8.42v2zm12.795-8h-2v-2h2zm45-2h-43v-1a1 1 0 0 0 -1-1h-3v-2h12a1 1 0 0 0 .919-.606l6-14a1 1 0 0 0 -.919-1.394h-21v-28h17v18a1 1 0 0 0 1.65.759l6.35-5.442 6.35 5.442a1 1 0 0 0 1.65-.759v-18h17z"/><path d="m58 35h-20a1 1 0 0 0 -1 1v12a1 1 0 0 0 1 1h20a1 1 0 0 0 1-1v-12a1 1 0 0 0 -1-1zm-1 12h-18v-10h18z"/><path d="m41 38h2v2h-2z"/><path d="m41 41h2v5h-2z"/><path d="m45 38h2v2h-2z"/><path d="m45 41h2v5h-2z"/><path d="m49 38h2v2h-2z"/><path d="m49 41h2v5h-2z"/><path d="m53 38h2v2h-2z"/><path d="m53 41h2v5h-2z"/><path d="m57 7v3h2v-4a1 1 0 0 0 -1-1h-4v2z"/><path d="m13 6v4h2v-3h3v-2h-4a1 1 0 0 0 -1 1z"/><path d="m57 12h2v2h-2z"/></svg>